<svg width="1024" height="1024" viewBox="0 0 1024 1024" fill="none" xmlns="http://www.w3.org/2000/svg">
<rect width="1024" height="1024" fill="#090909"/>
<g clip-path="url(#clip0_2235_2)">
<path d="M482.944 327.25C563.167 331.756 590.443 362.605 644.415 418.056C619.888 446.079 603.399 461.619 575.752 486.609C485.317 368.233 429.512 446.496 350.413 526.179C322.187 554.618 295.01 585.008 267.951 614.51C266.278 669.821 267.059 728.067 266.933 783.621L484.484 784.501C488.151 784.575 498.683 786.524 502.9 787.186C502.677 807.757 448.523 859.269 431.409 877.344L169.938 877.282C168.145 788.189 167.997 674.615 172.035 586.916C178.417 575.859 185.631 565.304 193.605 555.342C238.417 500.185 364.887 375.222 426.716 339.875C440.899 331.763 466.388 328.908 482.944 327.25Z" fill="#576CB2"/>
<path d="M476.995 145.066C549.929 145.334 654.891 136.018 717.751 167.937C762.958 191.194 797.002 231.53 812.323 280C856.547 417.187 752.346 491.39 668.76 576.793C587.765 659.554 512.027 737.623 390.89 668.558C360.529 645.64 347.699 632.198 321.518 604.962L387.877 540.151C390.912 543.451 393.976 546.723 397.077 549.965C462.187 617.865 496.683 620.755 563.971 549.504C617.137 493.197 726.314 413.328 726.327 331.801C726.352 241.218 622.154 239.085 559.531 240.103C529.936 209.009 504.448 178.079 476.995 145.066Z" fill="white"/>
<path d="M169.218 145.282L430.83 146.003C457.338 173.283 489.402 211.886 515.136 241.077C433.463 239.82 350.08 240.601 268.258 240.542C267.083 303.674 267.373 366.821 269.128 429.938L201.988 494.171C150.557 392.123 169.411 257.538 169.218 145.282Z" fill="#576CB2"/>
<path d="M789.697 501.969C834.991 512.899 856.827 610.48 857 650.734C856.819 714.49 830.684 775.43 784.601 819.504C711.779 890.526 613.698 878.08 517.723 877.282L497.604 876.739L492.234 870.687C499.954 846.3 541.672 804.364 560.571 782.946C612.991 784.151 664.968 788.107 710.5 756.973C783.219 707.262 772.048 628.382 728.091 564.202L789.697 501.969Z" fill="white"/>
</g>
<defs>
<clipPath id="clip0_2235_2">
<rect width="691" height="736" fill="white" transform="translate(166 144)"/>
</clipPath>
</defs>
</svg>
