<svg width="168" height="179" viewBox="0 0 168 179" fill="none" xmlns="http://www.w3.org/2000/svg">
<path d="M77.0574 44.5676C96.5616 45.6634 103.193 53.1661 116.315 66.6523C110.352 73.4677 106.343 77.247 99.6213 83.3247C77.6343 54.5349 64.0667 73.569 44.8356 92.9484C37.9731 99.8651 31.3656 107.256 24.787 114.431C24.3802 127.883 24.5701 142.049 24.5394 155.56L77.4318 155.774C78.3233 155.792 80.8838 156.266 81.9091 156.427C81.8549 161.43 68.6887 173.958 64.5279 178.354L0.957432 178.339C0.521635 156.671 0.485437 129.049 1.46734 107.72C3.01885 105.031 4.77293 102.464 6.71142 100.041C17.6064 86.6266 48.3545 56.2348 63.3868 47.6382C66.8352 45.6653 73.0322 44.9709 77.0574 44.5676Z" fill="#576CB2"/>
<path d="M75.611 0.259324C93.3431 0.324423 118.862 -1.94133 134.145 5.82166C145.136 11.478 153.413 21.2879 157.138 33.0762C167.89 66.4409 142.556 84.4876 122.234 105.258C102.542 125.386 84.1281 144.373 54.6765 127.576C47.2951 122.002 44.1757 118.733 37.8105 112.109L53.9441 96.3464C54.6819 97.1492 55.4269 97.9449 56.1809 98.7333C72.0107 115.247 80.3976 115.95 96.7572 98.6212C109.683 84.9271 136.227 65.5024 136.23 45.6745C136.236 23.6441 110.903 23.1252 95.6776 23.3729C88.4824 15.8106 82.2854 8.28813 75.611 0.259324Z" fill="white"/>
<path d="M0.782376 0.311768L64.3871 0.487199C70.8319 7.12181 78.6273 16.5104 84.884 23.6098C65.0272 23.3042 44.7545 23.494 24.8615 23.4796C24.5758 38.8338 24.6463 54.1915 25.0731 69.5421L8.74971 85.1639C-3.75461 60.3452 0.829391 27.6133 0.782376 0.311768Z" fill="#576CB2"/>
<path d="M151.637 87.0605C162.649 89.7187 167.958 113.451 168 123.241C167.956 138.747 161.602 153.568 150.398 164.287C132.693 181.56 108.847 178.533 85.5129 178.339L80.6215 178.207L79.3159 176.735C81.1929 170.804 91.3356 160.605 95.9305 155.396C108.675 155.689 121.312 156.651 132.382 149.079C150.062 136.989 147.346 117.805 136.659 102.196L151.637 87.0605Z" fill="white"/>
</svg>