<svg width="328" height="615" viewBox="0 0 328 615" fill="none" xmlns="http://www.w3.org/2000/svg">
<path d="M297.437 239.771C299.192 244.918 300.408 255.964 300.684 261.376C303.76 322.6 266.958 374.064 253.128 431.854C245.595 463.329 245.187 492.771 242.507 524.766C239.767 551.803 230.967 580.15 208.341 597.151C150.262 640.793 67.5657 599.512 76.9507 524.823C83.8667 485.335 114.508 475.164 139.111 448.81C152 435.003 161.443 417.77 160.218 398.435C157.163 350.241 112.029 336.608 83.1007 310.383C104.783 315.575 118.781 314.264 139.03 304.527C146.517 300.926 154.845 298.157 163.229 297.939C176.407 297.596 187.371 304.511 199.36 308.893C205.503 311.154 211.924 312.572 218.448 313.11C237.463 314.981 256.418 309.006 270.922 296.568C289.024 281.222 295.663 262.65 297.437 239.771Z" fill="#2FCDAA"/>
<path fill-rule="evenodd" clip-rule="evenodd" d="M160.683 124.146C200.683 122.012 207.807 150.615 228.563 175.948C246.837 198.251 273.515 208.404 270.628 243.346C269.616 256.229 263.512 268.177 253.667 276.547C248.461 280.856 242.345 283.928 235.779 285.533C209.266 292.078 193.607 273.366 166.952 271.162C144.782 269.395 128.463 284.353 108.318 286.623C96.314 288.06 84.2394 284.585 74.8364 276.986C52.1994 258.73 51.3346 224.848 70.8316 204.141C79.9435 194.463 91.6249 185.517 99.7388 175.366C119.65 150.456 124.286 127.372 160.683 124.146ZM170.506 153.902C167.09 153.414 163.627 153.323 160.189 153.635C136.329 156.337 132.969 171.296 119.731 187.674C108.022 201.828 90.4845 210.733 92.8755 231.857C94.6636 247.653 108.916 261.194 125.053 258.236C142.318 255.071 150.754 246.261 169.454 247.971C187.977 251.222 204.532 266.071 222.111 253.777C228.859 249.019 233.47 241.801 234.949 233.677C238.806 212.279 220.934 202.22 209.054 188.574C196.541 174.2 192.204 157.113 170.506 153.902Z" fill="#2FCDAA"/>
<path d="M104.122 0.100403C129.731 -1.9996 147.439 29.3024 150.708 50.8994C154.347 74.9364 148.383 107.432 120.04 111.902C67.5837 113.802 51.7937 6.8964 104.122 0.100403Z" fill="#2FCDAA"/>
<path d="M220.1 0.0951691C226.252 -0.114831 232.314 1.62018 237.423 5.05318C269.912 26.8132 256.915 98.5392 219.994 110.39C217.799 111.094 215.502 111.536 213.24 111.958C159.298 113.204 166.39 6.72217 220.1 0.0951691Z" fill="#2FCDAA"/>
<path d="M25.4945 80.5259C76.4855 76.6549 100.07 171.135 53.4485 181.869C3.26452 186.684 -22.5315 92.3259 25.4945 80.5259Z" fill="#2FCDAA"/>
<path d="M294.125 80.5628C300.474 80.0998 307.074 80.7638 312.343 84.4878C335.057 100.541 329.523 138.112 316.104 158.183C308.121 170.124 298.063 178.921 284.413 181.894C277.693 182.781 269.985 181.79 264.523 177.751C241.45 160.689 247.655 122.921 262.262 102.513C270.69 90.7388 280.183 83.0588 294.125 80.5628Z" fill="#2FCDAA"/>
</svg>
